<svg width="256" height="256" viewBox="0 0 256 256" fill="none" xmlns="http://www.w3.org/2000/svg">
  <rect width="256" height="256" rx="16" fill="white"/>
  <rect x="20" y="20" width="72" height="72" fill="black"/>
  <rect x="32" y="32" width="48" height="48" fill="white"/>
  <rect x="44" y="44" width="24" height="24" fill="black"/>
  <rect x="164" y="20" width="72" height="72" fill="black"/>
  <rect x="176" y="32" width="48" height="48" fill="white"/>
  <rect x="188" y="44" width="24" height="24" fill="black"/>
  <rect x="20" y="164" width="72" height="72" fill="black"/>
  <rect x="32" y="176" width="48" height="48" fill="white"/>
  <rect x="44" y="188" width="24" height="24" fill="black"/>
  <rect x="112" y="20" width="12" height="12" fill="black"/>
  <rect x="136" y="20" width="12" height="12" fill="black"/>
  <rect x="112" y="44" width="24" height="12" fill="black"/>
  <rect x="124" y="68" width="12" height="12" fill="black"/>
  <rect x="100" y="92" width="24" height="12" fill="black"/>
  <rect x="136" y="92" width="12" height="12" fill="black"/>
  <rect x="148" y="104" width="12" height="12" fill="black"/>
  <rect x="100" y="116" width="12" height="12" fill="black"/>
  <rect x="124" y="116" width="24" height="12" fill="black"/>
  <rect x="160" y="116" width="12" height="12" fill="black"/>
  <rect x="184" y="104" width="12" height="24" fill="black"/>
  <rect x="208" y="104" width="12" height="12" fill="black"/>
  <rect x="100" y="140" width="12" height="12" fill="black"/>
  <rect x="124" y="140" width="12" height="12" fill="black"/>
  <rect x="148" y="140" width="12" height="12" fill="black"/>
  <rect x="172" y="140" width="24" height="12" fill="black"/>
  <rect x="208" y="140" width="12" height="12" fill="black"/>
  <rect x="112" y="164" width="24" height="12" fill="black"/>
  <rect x="148" y="164" width="12" height="12" fill="black"/>
  <rect x="172" y="164" width="12" height="24" fill="black"/>
  <rect x="196" y="164" width="12" height="12" fill="black"/>
  <rect x="112" y="188" width="12" height="12" fill="black"/>
  <rect x="136" y="188" width="24" height="12" fill="black"/>
  <rect x="196" y="188" width="24" height="12" fill="black"/>
  <rect x="100" y="212" width="12" height="12" fill="black"/>
  <rect x="124" y="212" width="12" height="12" fill="black"/>
  <rect x="148" y="212" width="12" height="12" fill="black"/>
  <rect x="172" y="212" width="12" height="12" fill="black"/>
  <rect x="196" y="212" width="24" height="12" fill="black"/>
</svg>
